<svg xmlns="http://www.w3.org/2000/svg" xml:space="preserve" width="227.916" height="300" viewBox="0 0 227.916 300"><path d="M389.116 177.725H190.713v1h198.403z" style="fill:#231f20;fill-opacity:1;fill-rule:nonzero;stroke:none" transform="matrix(1.14875 0 0 -1.14875 -219.082 442.135)"/><path d="m237.514 131.27-3.1 2.41h-20.02l-3.1-2.41h-3.158a21.018 21.018 0 0 0-4.351 7.838h9.834l3.097 2.414h15.377l3.095-2.414h9.836a21.018 21.018 0 0 0-4.351-7.839zm-3.038 10.252-3.101 2.41H217.43l-3.097-2.41h-11.144a22.693 22.693 0 0 0-.358 4.04c0 .785 0 1.508.12 2.291h13.289l3.099 2.414h10.13l3.1-2.414h13.348c.059-.72.118-1.506.118-2.29 0-1.386-.176-2.713-.418-4.04zm-2.564 8.745-3.16 2.412h-8.757l-3.04-2.412H203.31c.418 1.931 1.133 3.738 1.968 5.428h13.226l3.158 2.414h5.545l3.096-2.414h13.232a21.072 21.072 0 0 0 1.965-5.428zm-18.233-18.998h21.45l3.102-2.41a21.15 21.15 0 0 0-13.825-5.13c-5.248 0-10.073 1.932-13.827 5.13zm15.85 26.84-3.038 2.41h-4.113l-3.157-2.41h-12.454c1.132 1.688 2.56 3.194 4.11 4.522h9.713l3.1 2.412h1.428l3.1-2.412h9.713c1.55-1.328 2.979-2.834 4.169-4.522zm-2.026 6.934-3.097 2.413c3.516 0 6.91-.906 9.829-2.412zm-6.2 0h-6.73c2.919 1.506 6.256 2.413 9.833 2.413zM257.568 161.07h1.951l1.982-9.15 2.546 6.601-.875 2.55h1.982l2.898-9.096 2.415 9.095h1.893l-3.029-10.419h-2.59l-1.935 5.762-2.143-5.762h-2.632zM278.636 154.66c0 1.385-.362 2.682-1.935 2.682-1.558 0-1.964-1.297-1.964-2.682 0-1.49.463-2.61 1.979-2.61 1.54 0 1.92 1.166 1.92 2.61m-5.868-.06c0 2.713 1.59 4.304 3.992 4.304 2.605 0 3.856-1.575 3.856-4.216 0-2.8-1.69-4.216-4.003-4.216-2.46 0-3.845 1.564-3.845 4.128M282.276 158.698h1.937v-1.076c.377.547 1.15 1.24 2.14 1.24.451 0 .771-.047 1.033-.136l-.276-1.62c-.38.074-.568.087-1.02.087-.799 0-1.528-.472-1.877-.912v-5.63h-1.937zM288.493 161.766h1.938v-11.114h-1.938zM297.474 152.669v4.512c-.157.028-.61.16-1.177.16-1.66 0-2.243-1.132-2.243-2.665 0-1.874.845-2.522 1.834-2.522.614 0 1.209.296 1.586.515m-5.37 1.888c0 3.065 1.806 4.348 4.164 4.348.394 0 .67-.03 1.206-.134v2.992h1.939V150.65h-1.94v.649c-.433-.356-.93-.784-1.946-.784-1.457 0-3.422.828-3.422 4.04M305.268 161.07h6.374v-1.592h-4.398v-2.844h4.079v-1.5h-4.08v-2.894h4.736v-1.589h-6.711zM315.69 154.76l-2.68 3.939h2.244l1.542-2.698 1.558 2.698h2.198l-2.663-3.922 2.895-4.128h-2.328l-1.66 2.876-1.686-2.876h-2.286zM327.41 154.894c0 1.447-.554 2.346-1.878 2.346-.699 0-1.193-.252-1.6-.427v-4.673c.144-.016.742-.12 1.192-.12 1.57 0 2.286 1.209 2.286 2.874m-5.4 3.805h1.921v-.605c.654.472 1.265.796 2.241.796 1.833 0 3.202-1.18 3.202-3.921 0-3.333-2.024-4.47-4.222-4.47-.492 0-.9.047-1.22.079v-3.172h-1.923zM336.422 154.66c0 1.385-.364 2.682-1.937 2.682-1.556 0-1.967-1.297-1.967-2.682 0-1.49.468-2.61 1.984-2.61 1.54 0 1.92 1.166 1.92 2.61m-5.868-.06c0 2.713 1.587 4.304 3.989 4.304 2.608 0 3.859-1.575 3.859-4.216 0-2.8-1.69-4.216-4.003-4.216-2.46 0-3.845 1.564-3.845 4.128M342.871 150.648v1.403c.816.781 4.585 4.154 4.585 5.894 0 1.21-.61 1.608-1.584 1.608-1.05 0-1.632-.28-2.068-.47l-.626 1.371c.626.368 1.34.736 2.881.736 2.811 0 3.35-1.696 3.35-3.125 0-2.196-2.156-4.129-4.063-5.81h4.514v-1.607zM355.493 159.523c-2.082 0-2.18-2.135-2.18-3.773 0-1.753.243-3.595 2.094-3.595 2.024 0 2.125 2.006 2.125 3.772 0 1.534-.086 3.596-2.039 3.596m-.157-9.005c-3.133 0-4.005 2.4-4.005 5.188 0 2.728.903 5.457 4.252 5.457 3.332 0 3.93-2.745 3.93-5.162 0-3.097-1.078-5.484-4.177-5.484M363.472 150.5c-1.805 0-2.72.355-2.72.355l.379 1.593c.523-.148 1.265-.264 2.195-.264 1.167 0 1.953.28 1.953 1.4 0 1.207-.77 1.65-2.68 1.769v1.4c1.5.102 2.227.545 2.227 1.622 0 .795-.537 1.194-1.398 1.194-.96 0-1.818-.296-1.818-.296l-.54 1.385c.702.356 1.47.545 2.463.545 1.746 0 3.187-.825 3.187-2.579 0-1.429-.89-2.078-1.543-2.387 1.077-.384 2.055-1.224 2.055-2.669 0-2.446-1.794-3.068-3.76-3.068M372.978 159.523c-2.08 0-2.184-2.135-2.184-3.773 0-1.753.25-3.595 2.098-3.595 2.024 0 2.124 2.006 2.124 3.772 0 1.534-.087 3.596-2.038 3.596m-.158-9.005c-3.13 0-4.003 2.4-4.003 5.188 0 2.728.901 5.457 4.251 5.457 3.334 0 3.93-2.745 3.93-5.162 0-3.097-1.079-5.484-4.178-5.484M257.903 135.99c0 3.7 2.172 6.001 5.823 6.001 1.021 0 1.748-.134 2.505-.457l-.48-1.136c-.772.25-1.238.324-2.139.324-2.71 0-4.193-1.887-4.193-4.569 0-2.344 1.455-3.538 3.655-3.538.801 0 1.512.073 2.255.294l.263-1.192c-.99-.312-1.866-.397-2.929-.397-2.853 0-4.76 1.661-4.76 4.67M271.387 134.105l.437 4.244c-.09.014-.247.014-.396.014-1.92 0-3.114-2.416-3.114-4.465 0-.724.206-1.297.67-1.297.656 0 1.966 1.105 2.403 1.504m-4.5-.352c0 2.797 1.864 5.834 4.877 5.834.496 0 1.18-.044 1.588-.116l-.817-8.006h-1.425l.146 1.343c-1.006-.944-1.85-1.532-2.636-1.532-1.252 0-1.732 1.015-1.732 2.476M275.522 139.515h1.426l-.116-1.194c.8.662 1.746 1.4 2.809 1.4 1.076 0 1.468-.455 1.468-1.575 0-.268-.012-.548-.057-.872l-.608-5.808h-1.43l.597 5.512c.03.252.03.473.03.648 0 .504-.131.723-.523.723-.584 0-1.457-.483-2.416-1.267l-.598-5.616h-1.426zM286.861 134.105l.451 4.258c-.103.015-.29.015-.48.015-1.645.017-3-2.003-3-4.17 0-1.268.234-1.608.642-1.608.713 0 1.821.93 2.387 1.504m-4.454-.176c0 3.301 1.993 5.614 4.745 5.658.072 0 .22-.012.291-.012l.321 3.005h1.426l-1.162-11.114h-1.43l.148 1.343c-.919-.916-1.82-1.532-2.652-1.532-1.295 0-1.687 1.177-1.687 2.652M290.878 142.004l1.225 1.092 1.004-1.092-1.236-1.091zm.134-2.49h1.426l-.83-8.048h-1.428zM298.072 134.105l.45 4.258c-.1.015-.29.015-.478.015-1.647.017-3-2.003-3-4.17 0-1.268.233-1.608.64-1.608.713 0 1.82.93 2.388 1.504m-4.456-.176c0 3.301 1.996 5.614 4.747 5.658.07 0 .22-.012.291-.012l.321 3.005h1.425l-1.164-11.114h-1.426l.146 1.343c-.918-.916-1.822-1.532-2.65-1.532-1.296 0-1.69 1.177-1.69 2.652M305.688 134.105l.436 4.244c-.089.014-.25.014-.395.014-1.92 0-3.113-2.416-3.113-4.465 0-.724.201-1.297.667-1.297.656 0 1.966 1.105 2.404 1.504m-4.502-.352c0 2.797 1.865 5.834 4.88 5.834.494 0 1.177-.044 1.586-.116l-.816-8.006h-1.425l.145 1.343c-1.006-.944-1.849-1.532-2.636-1.532-1.253 0-1.734 1.015-1.734 2.476M309.501 132.94c0 .206 0 .412.029.664l.526 4.762h-1.168l.116 1.148h1.181l.16 1.651h1.415l-.162-1.65h2.33l-.103-1.149h-2.343l-.525-4.808c-.074-.737.132-.987.554-.987.422 0 1.12.178 1.688.441l.304-1.09a4.802 4.802 0 0 0-2.356-.634c-1.019 0-1.617.444-1.646 1.652M318.397 136.684c.654.25 1.02.633 1.02 1.047 0 .59-.422.825-.845.825-1.4 0-2.07-1.311-2.33-2.726zm-3.756-2.358c0 2.816 1.324 5.409 3.976 5.409 1.526 0 2.182-.912 2.182-1.93 0-1.267-1.135-1.888-2.257-2.287l-2.431-.884v-.34c0-1.161.219-1.753.845-1.753.728 0 1.586.356 2.46.825l.495-1.033c-.916-.543-1.894-1.045-3.246-1.045-1.63 0-2.024 1.519-2.024 3.038" style="fill:#001689;fill-opacity:1;fill-rule:nonzero;stroke:none" transform="matrix(1.14875 0 0 -1.14875 -219.082 442.135)"/><path d="M216.785 235.595a1.336 1.336 0 0 1-.985-.901c-.014-.04-.024-.083-.035-.127l-3.068-11.975-3.536 13.003h-2.987l-3.553-13.027-2.942 11.923-.059.225a1.287 1.287 0 0 1-1.22.879h-2.233l4.475-16.471.077-.276c.003-.008.007-.01.007-.018.197-.463.655-.79 1.193-.79h2.034l3.702 13.512 3.554-13.512h1.998c.533 0 .993.323 1.187.784 0 .004.005.004.005.006l.08.294v.007l4.544 16.464zM225.11 220.524c.454 0 .876.066 1.263.195a2.6 2.6 0 0 1 1.013.608c.284.277.508.638.667 1.094.162.454.245 1 .245 1.634v1.483c0 1.283-.289 2.193-.866 2.724-.573.538-1.348.805-2.322.805-.975 0-1.75-.267-2.324-.805-.579-.53-.865-1.44-.865-2.724v-1.483c0-.635.08-1.18.247-1.634.16-.456.381-.817.665-1.094a2.6 2.6 0 0 1 1.01-.608 4.021 4.021 0 0 1 1.267-.195m0-2.678c-.957 0-1.824.14-2.595.412-.769.278-1.426.674-1.969 1.193a5.304 5.304 0 0 0-1.266 1.935c-.3.772-.45 1.646-.45 2.618v1.582c0 .99.15 1.868.45 2.63a5.301 5.301 0 0 0 1.266 1.923c.543.52 1.2.914 1.97 1.192.77.277 1.637.415 2.594.415.94 0 1.801-.138 2.582-.415.777-.278 1.44-.672 1.982-1.192a5.325 5.325 0 0 0 1.265-1.924c.301-.76.452-1.639.452-2.629v-1.582c0-.972-.15-1.846-.452-2.618a5.327 5.327 0 0 0-1.265-1.935c-.543-.519-1.205-.915-1.982-1.193-.78-.273-1.643-.412-2.582-.412M240.882 231.67c-.34.053-.676.076-1.022.076-.958 0-1.733-.204-2.325-.606a4.464 4.464 0 0 1-1.424-1.631h-.043v1.945h-1.656a1.295 1.295 0 0 1-1.297-1.294v-12.12h1.785c.669 0 1.219.512 1.284 1.16v6.8a3.017 3.017 0 0 0 .865 2.154c.27.269.586.477.95.62.365.147.759.22 1.179.22.392 0 .715-.023.973-.073.26-.046.504-.12.73-.216l.879 2.775c-.24.078-.536.147-.878.19M243.957 236.441a1.29 1.29 0 0 1-1.297-1.292V218.04h1.774c.715 0 1.294.581 1.294 1.294v17.107zM256.39 223.737c0-.456-.075-.88-.222-1.277a3.173 3.173 0 0 0-.621-1.048 2.763 2.763 0 0 0-.998-.705 3.377 3.377 0 0 0-1.35-.255c-.892 0-1.57.311-2.033.934-.463.625-.69 1.505-.69 2.642v1.51c0 1.123.227 1.995.69 2.627.463.635 1.182.954 2.156.954.537 0 .995-.084 1.377-.244a2.95 2.95 0 0 0 .944-.622c.255-.253.442-.535.56-.853.127-.317.187-.626.187-.937zm1.238 12.704c-.69 0-1.255-.54-1.288-1.224v-4.906a2.825 2.825 0 0 1-.416.475 2.757 2.757 0 0 1-.693.463 5.163 5.163 0 0 1-1.02.35c-.398.1-.865.147-1.4.147-.811 0-1.545-.135-2.204-.403a4.813 4.813 0 0 1-1.691-1.142c-.47-.497-.83-1.105-1.084-1.828-.252-.72-.376-1.536-.376-2.446v-2.363c0-1.815.426-3.223 1.277-4.22.852-.998 2.137-1.498 3.859-1.498.812 0 1.566.132 2.26.4.7.27 1.228.727 1.589 1.38h.07v-1.586h1.606c.712 0 1.288.581 1.288 1.294v17.107z" style="fill:#231f20;fill-opacity:1;fill-rule:nonzero;stroke:none" transform="matrix(1.14875 0 0 -1.14875 -219.082 442.135)"/><path d="M203.209 219.334c0-.046-.006-.09-.006-.134a1.293 1.293 0 0 0-2.476-.37c0 .008-.005.01-.008.018a1.157 1.157 0 0 0-.076.276 1.358 1.358 0 0 0-.021.21c0 .712.579 1.295 1.297 1.295a1.28 1.28 0 0 0 1.218-.878l.058-.227c.003-.019.003-.038.008-.056 0-.041.006-.089.006-.134M259.404 219.334a1.291 1.291 0 1 0-2.582 0c0 .712.575 1.295 1.294 1.295.713 0 1.288-.583 1.288-1.295M277.036 220.606h-7.088v5.143h7.7v2.533h-7.7v4.726h6.927c.681 0 1.241.53 1.282 1.203v1.38h-10.009a1.294 1.294 0 0 1-1.294-1.292v-14.983c0-.716.581-1.29 1.294-1.29h10.182v1.29a1.29 1.29 0 0 1-1.294 1.29M293.1 220.065l-.354.582v.003l-3.871 6.39 3.492 5.694.712 1.158 1.038 1.7h-2.58c-.54 0-1.01-.27-1.286-.683l-.128-.23-3.123-5.57-3.045 5.627-.038.075c-.267.466-.77.78-1.343.78h-2.837l4.998-8.38-3.753-6.343-.652-1.099-1.03-1.743h2.588c.557 0 1.05.291 1.324.73.005.006.009.01.009.015l.07.133c.007.003.008.006.008.006l3.408 6.206 3.538-6.24c.002-.007.006-.008.007-.01l.049-.086s0-.005.003-.009a1.553 1.553 0 0 1 1.326-.745h2.702zM305.417 230.11c0-1.023-.291-1.73-.875-2.123-.587-.389-1.395-.584-2.417-.584h-3.09v5.581h3.36c.437 0 .844-.037 1.222-.108.369-.073.688-.204.958-.394.269-.184.475-.43.62-.74.145-.308.222-.707.222-1.195zm2.789 2.46a4.124 4.124 0 0 1-1.084 1.593c-.487.45-1.11.8-1.862 1.051-.759.251-1.663.377-2.719.377h-5.338c-.709 0-1.29-.579-1.29-1.292v-16.273h1.828a1.29 1.29 0 0 1 1.294 1.29v5.456h3.506c1.025 0 1.91.143 2.654.43.749.285 1.375.663 1.877 1.144a4.508 4.508 0 0 1 1.123 1.677c.243.646.365 1.325.365 2.036v.513c0 .715-.118 1.382-.354 1.997M317.18 220.606c.602 0 1.163.08 1.679.232.522.154.977.43 1.369.816.389.39.694.917.913 1.586.219.664.33 1.501.33 2.51v2.118c0 1.008-.111 1.842-.33 2.51-.22.665-.524 1.192-.913 1.582-.392.39-.847.661-1.37.818a5.855 5.855 0 0 1-1.678.23 5.813 5.813 0 0 1-1.656-.23 3.23 3.23 0 0 1-1.366-.818c-.39-.39-.698-.917-.925-1.583-.227-.667-.34-1.5-.34-2.509v-2.119c0-1.008.113-1.845.34-2.509.227-.669.536-1.196.925-1.586a3.226 3.226 0 0 1 1.366-.816 5.849 5.849 0 0 1 1.656-.232m0 15.253c.993 0 1.94-.145 2.84-.427a6.402 6.402 0 0 0 2.376-1.342c.68-.607 1.22-1.394 1.619-2.349.396-.958.599-2.119.599-3.485v-2.898c0-1.382-.203-2.553-.6-3.522-.398-.964-.934-1.75-1.606-2.35a6.297 6.297 0 0 0-2.364-1.316 9.7 9.7 0 0 0-2.864-.416 9.682 9.682 0 0 0-2.862.416 6.282 6.282 0 0 0-2.364 1.316c-.674.6-1.211 1.386-1.606 2.35-.4.97-.601 2.14-.601 3.522v2.898c0 1.366.202 2.527.6 3.485.396.955.939 1.742 1.62 2.35a6.398 6.398 0 0 0 2.376 1.341 9.46 9.46 0 0 0 2.837.427M341.422 220.588h-7.157l5.167 5.214c.827.824 1.46 1.678 1.886 2.546a6.09 6.09 0 0 1 .648 2.74v.246a4.45 4.45 0 0 1-.331 1.712 3.747 3.747 0 0 1-1.022 1.438c-.463.419-1.054.745-1.763.992-.718.245-1.571.36-2.562.36-.894 0-1.668-.115-2.33-.36-.653-.247-1.224-.55-1.703-.914a5.915 5.915 0 0 1-1.195-1.204c-.314-.441-.578-.85-.79-1.224l2.338-1.533c.295.504.586.918.892 1.243.297.326.604.576.912.754.31.18.62.3.939.366.317.063.634.098.96.098.915 0 1.558-.192 1.937-.57.384-.385.573-.81.573-1.284v-.191c0-.244-.017-.497-.045-.756a2.819 2.819 0 0 0-.273-.856 6.644 6.644 0 0 0-.652-1.045 14.726 14.726 0 0 0-1.198-1.364l-5.912-6.091-.191-.195c-.03-.037-.061-.072-.085-.116a1.136 1.136 0 0 1-.128-.227 1.488 1.488 0 0 1-.142-.638v-1.725h12.427v1.297a1.29 1.29 0 0 1-1.2 1.287M353.388 228.189c0 1.009-.094 1.817-.28 2.438-.186.616-.431 1.09-.733 1.424a2.22 2.22 0 0 1-1.045.67 4.45 4.45 0 0 1-2.437 0c-.401-.113-.754-.342-1.071-.681-.32-.34-.574-.82-.768-1.44-.197-.615-.293-1.421-.293-2.411v-2.776c0-1.008.099-1.82.302-2.438.206-.619.469-1.096.793-1.439a2.428 2.428 0 0 1 1.096-.68 4.496 4.496 0 0 1 1.22-.17 4.3 4.3 0 0 1 1.216.17c.393.113.73.335 1.024.67.293.331.53.81.708 1.425.178.616.268 1.437.268 2.461zm3.14-2.755c0-2.498-.527-4.408-1.583-5.724-1.056-1.315-2.65-1.973-4.773-1.973-2.097 0-3.714.666-4.85 1.999-1.137 1.332-1.705 3.232-1.705 5.698v2.729c0 2.47.564 4.368 1.695 5.69 1.128 1.327 2.722 1.984 4.788 1.984 2.077 0 3.67-.657 4.772-1.983 1.106-1.323 1.657-3.22 1.657-5.691zM368.39 225.802c-.55.715-1.41 1.178-2.582 1.388a3.75 3.75 0 0 1 1.244.756c.326.307.582.646.779 1.009.194.368.329.749.4 1.149.075.395.108.766.108 1.104v.246a4.12 4.12 0 0 1-.386 1.79 4.025 4.025 0 0 1-1.096 1.392c-.471.38-1.041.675-1.71.887-.661.21-1.411.314-2.24.314-1.266 0-2.306-.23-3.117-.691a7.029 7.029 0 0 1-2.097-1.842l2.125-1.654c.384.42.813.77 1.275 1.047.465.274 1.068.416 1.815.416.73 0 1.312-.152 1.742-.452.43-.3.648-.782.648-1.453v-.191a4.7 4.7 0 0 0-.11-1.04 1.867 1.867 0 0 0-.402-.801c-.198-.221-.467-.39-.815-.512-.352-.121-.804-.182-1.352-.182h-.948a1.291 1.291 0 0 1-1.15-1.116v-1.564h2.365c1.12 0 1.932-.201 2.436-.6.503-.397.754-1.023.754-1.886v-.318c0-.777-.26-1.384-.778-1.825-.521-.437-1.333-.657-2.437-.657-.358 0-.69.02-.998.072-.312.05-.626.132-.953.255a6.343 6.343 0 0 0-1.012.5 16.2 16.2 0 0 0-1.155.777l-1.536-2.435a8.551 8.551 0 0 1 2.668-1.473 9.27 9.27 0 0 1 2.962-.475c1.07 0 2.009.14 2.81.426.804.285 1.474.662 2.002 1.13.528.474.92 1.018 1.18 1.638.26.617.388 1.257.388 1.923v.365c0 1.007-.273 1.869-.827 2.583M380.52 228.189c0 1.009-.095 1.817-.28 2.438-.188.616-.432 1.09-.731 1.424a2.234 2.234 0 0 1-1.048.67 4.46 4.46 0 0 1-1.233.17c-.403 0-.806-.056-1.204-.17-.397-.113-.754-.342-1.073-.681-.318-.34-.575-.82-.766-1.44-.194-.615-.29-1.421-.29-2.411v-2.776c0-1.008.1-1.82.302-2.438.203-.619.465-1.096.79-1.439.327-.338.69-.567 1.098-.68a4.493 4.493 0 0 1 1.218-.17c.423 0 .829.056 1.218.17.39.113.73.335 1.024.67.29.331.529.81.704 1.425.182.616.272 1.437.272 2.461zm3.144-2.755c0-2.498-.528-4.408-1.585-5.724-1.056-1.315-2.647-1.973-4.776-1.973-2.097 0-3.714.666-4.847 1.999-1.138 1.332-1.71 3.232-1.71 5.698v2.729c0 2.47.569 4.368 1.699 5.69 1.129 1.327 2.72 1.984 4.783 1.984 2.084 0 3.67-.657 4.78-1.983 1.1-1.323 1.656-3.22 1.656-5.691zM218.98 196.143h3.964c1.21 0 2.098.249 2.678.739.568.494.86 1.228.86 2.199v.5c0 .5-.065.94-.191 1.32-.126.38-.35.702-.66.957-.314.258-.727.453-1.237.582-.511.129-1.151.192-1.92.192h-3.494zm0 13.616v-5.783h3.473c1.065 0 1.89.196 2.475.59.579.398.87 1.109.87 2.14v.414c0 .968-.277 1.652-.84 2.048-.562.393-1.445.59-2.652.59zm-1.47 1.389h4.904c3.25 0 4.879-1.336 4.879-4.007v-.477c0-.366-.045-.718-.13-1.061a2.967 2.967 0 0 0-.414-.944 2.832 2.832 0 0 0-.768-.762 3.674 3.674 0 0 0-1.161-.513c.938-.151 1.702-.532 2.294-1.137.587-.61.882-1.481.882-2.621v-.57c0-1.35-.403-2.41-1.205-3.174-.802-.768-2.042-1.15-3.721-1.15h-5.56zM236.009 195.913c1.335 0 2.334.456 2.993 1.37.66.911.994 2.387.994 4.44v9.424h1.47V201.13c0-2.278-.478-3.953-1.438-5.03-.96-1.078-2.3-1.619-4.02-1.619-1.734 0-3.075.541-4.026 1.618-.952 1.078-1.426 2.753-1.426 5.031v10.017h1.467v-9.425c0-2.052.33-3.528.992-4.44.659-.913 1.658-1.369 2.994-1.369M249.606 195.962c.6 0 1.135.074 1.611.227a3.83 3.83 0 0 1 1.217.626c.328.265.585.568.755.91.17.343.257.696.257 1.059v.479c0 .379-.06.719-.172 1.024a2.05 2.05 0 0 1-.618.83c-.3.25-.706.48-1.228.684-.517.206-1.189.406-2.01.602-.899.213-1.646.46-2.253.742-.603.28-1.084.6-1.447.953a3.15 3.15 0 0 0-.769 1.186 4.396 4.396 0 0 0-.224 1.423v.526c0 .62.128 1.184.377 1.692.246.51.596.947 1.041 1.312.447.364.981.649 1.601.854a6.336 6.336 0 0 0 2.013.308c1.036 0 1.926-.134 2.664-.4.738-.267 1.37-.595 1.896-.99l-.7-1.298a6.06 6.06 0 0 1-1.707.9c-.64.22-1.357.33-2.153.33-.468 0-.917-.06-1.343-.182a3.517 3.517 0 0 1-1.12-.534 2.823 2.823 0 0 1-.767-.855 2.25 2.25 0 0 1-.288-1.137v-.456c0-.35.063-.67.181-.958.12-.288.32-.544.596-.774.277-.227.651-.44 1.121-.636.47-.198 1.051-.381 1.746-.546.994-.245 1.823-.505 2.472-.788.655-.28 1.176-.604 1.562-.967.378-.364.65-.775.806-1.23.156-.455.235-.978.235-1.57v-.524c0-.59-.12-1.146-.366-1.66a4.135 4.135 0 0 0-1.03-1.368c-.447-.396-1.004-.705-1.66-.935-.664-.226-1.406-.34-2.23-.34a8.248 8.248 0 0 0-2.867.49 7.994 7.994 0 0 0-2.356 1.332l.767 1.343c.768-.59 1.517-1.022 2.25-1.287a6.236 6.236 0 0 1 2.14-.397M260.308 201.22h5.564l-1.494 4.44c-.098.273-.188.54-.275.796-.086.26-.18.543-.278.855-.1.31-.207.659-.32 1.048-.114.387-.247.843-.406 1.379-.14-.536-.27-.992-.384-1.38a39.297 39.297 0 0 0-.317-1.047c-.1-.312-.194-.595-.278-.855a35.232 35.232 0 0 0-.276-.796zm9.336-6.487h-1.6l-1.703 5.098h-6.504l-1.744-5.098h-1.537l5.713 16.415h1.684zM271.882 211.148h1.769l7.055-12.843c.127-.226.238-.45.338-.671.103-.22.23-.503.388-.852v14.366h1.427v-16.415h-1.77l-7.076 12.887a32.81 32.81 0 0 0-.34.659c-.101.197-.221.47-.362.82v-14.366h-1.43zM286.524 196.462h1.877l-1.535-5.125h-1.238zM301.468 204.136l6.799-9.403h-1.92l-5.944 8.242-1.962-2.165v-6.077h-1.494v16.415h1.494v-8.288l7.417 8.288h2.005zM315.429 195.913c1.377 0 2.467.515 3.27 1.54.802 1.024 1.205 2.522 1.205 4.495v1.983c0 1.973-.403 3.471-1.205 4.496-.803 1.025-1.893 1.537-3.27 1.537-1.38 0-2.472-.512-3.271-1.537-.804-1.025-1.206-2.523-1.206-4.496v-1.983c0-1.973.402-3.47 1.206-4.496.799-1.024 1.89-1.539 3.27-1.539m0 15.485c.95 0 1.796-.172 2.536-.512a5.113 5.113 0 0 0 1.874-1.47c.513-.637.903-1.406 1.172-2.31.273-.904.407-1.916.407-3.04v-2.253c0-1.124-.134-2.138-.407-3.04-.27-.905-.66-1.673-1.172-2.31a5.107 5.107 0 0 0-1.874-1.469c-.74-.343-1.585-.513-2.535-.513-.953 0-1.8.17-2.538.513a5.124 5.124 0 0 0-1.874 1.468c-.513.638-.903 1.406-1.174 2.311-.268.902-.406 1.916-.406 3.04v2.253c0 1.124.13 2.136.395 3.04.265.904.652 1.673 1.16 2.31a5.135 5.135 0 0 0 1.889 1.47c.746.34 1.595.512 2.548.512M326.065 209.712v-6.467h3.365c1.336 0 2.3.278 2.89.832.588.556.882 1.333.882 2.334v.228c0 .955-.285 1.708-.863 2.255-.574.546-1.465.818-2.672.818zm4.407-7.877a1.994 1.994 0 0 0-.285-.021h-4.122v-7.081h-1.493v16.415h5.306c.77 0 1.452-.111 2.046-.33a4.358 4.358 0 0 0 1.525-.933c.42-.402.733-.878.95-1.425a4.856 4.856 0 0 0 .318-1.775v-.34c0-1.006-.249-1.866-.748-2.585-.495-.723-1.172-1.251-2.023-1.585l3.094-7.442h-1.602zM347.25 211.148v-1.41h-7.761v-5.874h7.313v-1.413h-7.313v-6.308h7.908v-1.41h-9.399v16.415zM352.983 201.22h5.565l-1.495 4.44c-.097.273-.193.54-.276.796-.087.26-.177.543-.274.855-.102.31-.209.659-.324 1.048-.112.387-.249.843-.406 1.379a49.654 49.654 0 0 0-.702-2.427c-.099-.312-.19-.595-.276-.855a27.688 27.688 0 0 0-.278-.796zm9.334-6.487h-1.599l-1.704 5.098h-6.5l-1.748-5.098h-1.535l5.713 16.415h1.684z" style="fill:#231f20;fill-opacity:1;fill-rule:nonzero;stroke:none" transform="matrix(1.14875 0 0 -1.14875 -219.082 442.135)"/><path d="M261.73 378.821a6.059 6.059 0 0 0 6.058 6.061 6.065 6.065 0 0 0 6.064-6.06 6.063 6.063 0 0 0-6.063-6.063 6.057 6.057 0 0 0-6.058 6.062" style="fill:#0047bb;fill-opacity:1;fill-rule:nonzero;stroke:none" transform="matrix(1.14875 0 0 -1.14875 -219.082 442.135)"/><path d="M267.788 354.343c-9.558 0-19.11 3.637-26.382 10.91a6.022 6.022 0 0 0 0 8.52 6.022 6.022 0 0 0 8.521 0c9.847-9.848 25.876-9.844 35.724.002a6.026 6.026 0 0 0 8.524-8.522c-7.276-7.272-16.83-10.91-26.387-10.91M318.1 360.21a6.06 6.06 0 1 0-12.121 0 6.06 6.06 0 1 0 12.122 0" style="fill:#0047bb;fill-opacity:1;fill-rule:nonzero;stroke:none" transform="matrix(1.14875 0 0 -1.14875 -219.082 442.135)"/><path d="M289.914 363.487a6.014 6.014 0 0 0-4.263 1.766 6.03 6.03 0 0 0 0 8.521c14.551 14.55 38.227 14.55 52.77 0a6.018 6.018 0 0 0 0-8.52 6.025 6.025 0 0 0-8.518 0c-9.85 9.848-25.879 9.848-35.728 0a6.008 6.008 0 0 0-4.26-1.767" style="fill:#0047bb;fill-opacity:1;fill-rule:nonzero;stroke:none" transform="matrix(1.14875 0 0 -1.14875 -219.082 442.135)"/><path d="M261.73 282.1a6.06 6.06 0 1 0 12.123 0 6.063 6.063 0 0 0-6.064-6.063 6.057 6.057 0 0 0-6.058 6.063" style="fill:#3db5e6;fill-opacity:1;fill-rule:nonzero;stroke:none" transform="matrix(1.14875 0 0 -1.14875 -219.082 442.135)"/><path d="M267.788 257.622c-9.558 0-19.11 3.636-26.382 10.908a6.028 6.028 0 0 0 8.521 8.526c9.847-9.85 25.876-9.85 35.724 0a6.03 6.03 0 0 0 8.524 0 6.031 6.031 0 0 0 0-8.523c-7.276-7.273-16.83-10.91-26.387-10.91M318.1 263.49a6.06 6.06 0 1 0-12.121 0 6.06 6.06 0 1 0 12.122 0" style="fill:#3db5e6;fill-opacity:1;fill-rule:nonzero;stroke:none" transform="matrix(1.14875 0 0 -1.14875 -219.082 442.135)"/><path d="M289.914 266.769a6.013 6.013 0 0 0-4.263 1.765 6.032 6.032 0 0 0 0 8.522c14.551 14.548 38.227 14.548 52.77 0a6.02 6.02 0 0 0 0-8.522 6.025 6.025 0 0 0-8.518 0c-9.85 9.85-25.879 9.85-35.728 0a6.007 6.007 0 0 0-4.26-1.765" style="fill:#3db5e6;fill-opacity:1;fill-rule:nonzero;stroke:none" transform="matrix(1.14875 0 0 -1.14875 -219.082 442.135)"/><path d="M283.852 321.152a6.062 6.062 0 1 0 12.125 0 6.063 6.063 0 0 0-12.125 0M340.225 299.867a6.057 6.057 0 0 0-6.06-6.062 6.061 6.061 0 1 0 6.06 6.062" style="fill:#bac7d8;fill-opacity:1;fill-rule:nonzero;stroke:none" transform="matrix(1.14875 0 0 -1.14875 -219.082 442.135)"/><path d="M312.041 303.144a6.026 6.026 0 0 0-4.263 10.289c14.549 14.548 38.221 14.548 52.771.001a6.03 6.03 0 0 0 0-8.523 6.03 6.03 0 0 0-8.522 0c-9.85 9.85-25.876 9.85-35.726 0a6.015 6.015 0 0 0-4.26-1.767M251.727 299.867a6.057 6.057 0 0 0-6.062-6.062 6.06 6.06 0 1 0 0 12.123 6.059 6.059 0 0 0 6.062-6.06" style="fill:#bac7d8;fill-opacity:1;fill-rule:nonzero;stroke:none" transform="matrix(1.14875 0 0 -1.14875 -219.082 442.135)"/><path d="M223.538 303.144c-1.542 0-3.082.59-4.256 1.767a6.02 6.02 0 0 0 0 8.522c14.548 14.548 38.222 14.548 52.77.001a6.035 6.035 0 0 0 0-8.523 6.03 6.03 0 0 0-8.522 0c-9.85 9.85-25.88 9.85-35.729 0a6.01 6.01 0 0 0-4.263-1.767" style="fill:#bac7d8;fill-opacity:1;fill-rule:nonzero;stroke:none" transform="matrix(1.14875 0 0 -1.14875 -219.082 442.135)"/><path d="M289.912 293.998c-9.557 0-19.109 3.638-26.382 10.91a6.026 6.026 0 0 0 8.522 8.523c9.848-9.851 25.874-9.847 35.726.003a6.025 6.025 0 0 0 8.523-.003 6.03 6.03 0 0 0 0-8.52c-7.277-7.275-16.835-10.913-26.389-10.913" style="fill:#bac7d8;fill-opacity:1;fill-rule:nonzero;stroke:none" transform="matrix(1.14875 0 0 -1.14875 -219.082 442.135)"/><path d="M239.602 342.441a6.063 6.063 0 1 0 12.124-.002 6.063 6.063 0 0 0-12.124.002" style="fill:#00adbc;fill-opacity:1;fill-rule:nonzero;stroke:none" transform="matrix(1.14875 0 0 -1.14875 -219.082 442.135)"/><path d="M245.662 317.965c-9.556 0-19.107 3.638-26.38 10.91a6.02 6.02 0 0 0 0 8.522 6.028 6.028 0 0 0 8.52 0c9.848-9.85 25.876-9.85 35.728.004a6.027 6.027 0 0 0 8.521-8.526c-7.278-7.272-16.835-10.91-26.389-10.91M328.103 342.441a6.062 6.062 0 1 0 6.058-6.062 6.058 6.058 0 0 0-6.058 6.062" style="fill:#00adbc;fill-opacity:1;fill-rule:nonzero;stroke:none" transform="matrix(1.14875 0 0 -1.14875 -219.082 442.135)"/><path d="M334.16 317.965c-9.556 0-19.109 3.638-26.382 10.91a6.026 6.026 0 0 0 0 8.522 6.033 6.033 0 0 0 8.523 0c9.846-9.85 25.875-9.85 35.726.004a6.028 6.028 0 0 0 8.522-8.526c-7.278-7.272-16.83-10.91-26.389-10.91" style="fill:#00adbc;fill-opacity:1;fill-rule:nonzero;stroke:none" transform="matrix(1.14875 0 0 -1.14875 -219.082 442.135)"/><path d="M267.788 327.112a5.997 5.997 0 0 0-4.26 1.763 6.032 6.032 0 0 0 .002 8.525c14.547 14.545 38.221 14.546 52.771 0a6.032 6.032 0 0 0 0-8.522 6.03 6.03 0 0 0-8.527 0c-9.848 9.848-25.874 9.846-35.723-.003a6.006 6.006 0 0 0-4.263-1.763" style="fill:#00adbc;fill-opacity:1;fill-rule:nonzero;stroke:none" transform="matrix(1.14875 0 0 -1.14875 -219.082 442.135)"/></svg>